<?xml version="1.0" encoding="utf-8"?>
<!-- Generator: Adobe Illustrator 26.3.1, SVG Export Plug-In . SVG Version: 6.00 Build 0)  -->
<svg version="1.1" id="Layer_1" xmlns="http://www.w3.org/2000/svg" xmlns:xlink="http://www.w3.org/1999/xlink" x="0px" y="0px"
	 viewBox="0 0 57 58" style="enable-background:new 0 0 57 58;" xml:space="preserve">
<style type="text/css">
	.st0{fill:#602DB2;}
	.st1{fill:#FFFFFF;}
</style>
<g>
	<circle class="st0" cx="28.5" cy="29.1" r="28.5"/>
	<path class="st1" d="M40.8,17.9c0.1,0,0.1,0,0.2,0c0.1,0,0.2,0,0.3,0c0.8,0.1,1.4,0.4,2,1c0.6,0.7,0.9,1.6,0.9,2.6
		c0,5.5,0,10.9,0,16.4c0,0.3,0,0.6-0.1,0.8c-0.2,1.4-1.3,2.9-3.3,2.9c-8.2,0-16.3,0-24.5,0c-1.5,0-2.6-0.8-3.1-2.2
		c-0.1-0.3-0.2-0.6-0.2-0.8c0-5.9,0-11.7,0-17.6c0-0.1,0-0.2,0.1-0.2c0.2-0.9,0.5-1.6,1.2-2.2c0.4-0.3,0.9-0.4,1.3-0.7
		c2.2,0,4.5,0,6.7,0c0.1,0,0.2,0,0.4,0c5.4,0,10.8,0,16.2,0C39.5,18,40.2,17.9,40.8,17.9z M41.7,22.3c-0.1,0.1-0.1,0.1-0.2,0.1
		c-3.7,3.4-7.4,6.8-11.1,10.1c-1.2,1.1-2.9,1.1-4.1,0c-3.6-3.5-7.2-6.9-10.7-10.4c-0.1-0.1-0.2-0.1-0.3-0.2c0,0.1,0,0.1,0,0.2
		c0,5.3,0,10.7,0,16c0,0.3,0.1,0.5,0.2,0.8c0.1,0.2,0.3,0.3,0.6,0.3c8.3,0,16.5,0,24.8,0c0.3,0,0.5-0.1,0.5-0.3
		c0.1-0.3,0.2-0.7,0.2-1c0-5.1,0-10.2,0-15.2C41.7,22.5,41.7,22.4,41.7,22.3z M17.3,20.4c0.1,0.1,0.2,0.2,0.3,0.3
		c3.5,3.3,6.9,6.7,10.4,10c0.3,0.3,0.5,0.3,0.8,0c3.6-3.3,7.3-6.7,10.9-10c0.1-0.1,0.2-0.2,0.3-0.3C32.4,20.4,24.9,20.4,17.3,20.4z"
		/>
</g>
</svg>
