<?xml version="1.0" encoding="utf-8"?>
<!-- Generator: Adobe Illustrator 26.3.1, SVG Export Plug-In . SVG Version: 6.00 Build 0)  -->
<svg version="1.1" xmlns="http://www.w3.org/2000/svg" xmlns:xlink="http://www.w3.org/1999/xlink" x="0px" y="0px"
	 viewBox="0 0 974.1 641.5" style="enable-background:new 0 0 974.1 641.5;" xml:space="preserve">
<style type="text/css">
	.st0{display:none;}
	.st1{display:inline;fill:#FFFFFF;}
	.st2{display:inline;fill:#69B8C3;}
	.st3{display:inline;}
	.st4{opacity:0.2;}
	.st5{fill:none;}
	.st6{fill:#FFFFFF;}
	.st7{opacity:0.15;enable-background:new    ;}
	.st8{opacity:0.15;}
	.st9{fill:none;stroke:#5F439A;stroke-width:2;stroke-miterlimit:10;}
</style>
<g id="Layer_1" class="st0">
	<rect y="-0.1" class="st1" width="974.1" height="641.6"/>
	<rect y="-0.1" class="st2" width="974.1" height="641.6"/>
	<g class="st3">
		<g class="st4">
			<path class="st5" d="M465.7,76.4c0.9-2.2,1.7-4.6,2-6.8c0.3-1.7-0.3-4.6-1.6-5.2c-1.3-0.9-4.2-0.3-5.5,0.7
				c-2.6,1.7-5.2,4.2-7.1,6.8c-6.5,9-9.3,19.5-11.6,31.4C453.3,95.9,460.7,87.4,465.7,76.4z"/>
			<path class="st5" d="M140.7,263.4c10.1,10.6,26.5,10.6,41.6-1.7c-15.2-0.4-28.3-0.9-41.5-1.3
				C140.9,261.4,140.9,262.6,140.7,263.4z"/>
			<path class="st5" d="M692.3,330.1c7.2,1.2,14-0.9,18.2-5.1c-7.7-16.2-15.2-31.8-22.6-47.6c-5.9,15.3-9.3,31.1-2.2,47.4
				C686.8,327.3,689.8,329.8,692.3,330.1z"/>
			<path class="st5" d="M720,290.3c2,3,5.1,5.2,8.4,8.8c4.3-14.7,5.9-28,3-41.9c-2.6-11.6-10.1-20.4-18.7-21.5
				c-7.1-0.9-8.8,0.4-8.5,7.5C704.6,260.8,710.6,276.2,720,290.3z"/>
			<path class="st5" d="M476.6,380.7c6.4-0.3,8.5-5.6,10.3-10.7c0.4-1.2,0.7-2.2,0.9-3.5c0.9-8.8,1.7-17.5,2.5-26.5
				c0-1.2-0.7-2.6-1.7-3.3c-3.8-2.2-3.8-5.2-2.2-8.8c2-5.2,4.2-10.3,5.6-15.6c0.7-2.2,0-4.6-0.3-6.8c-2.5,0.3-5.2-0.4-7.2,0.9
				c-3.9,2.6-8.1,5.5-10.6,9.3c-11.1,16.6-12.4,35.3-8.5,52.8C468.5,375.2,469.9,381.1,476.6,380.7z"/>
			<path class="st5" d="M575.6,350.5c2.6,6.8,5.5,7.7,10.7,3c1.3-1.2,2.5-2.2,3.3-3.5c10.6-19.7,13.2-40.8,5.1-62.9
				c-1.3-3.3-5.2-8.5-7.1-8.4c-3.5,0.7-6.5,4.3-9.4,7.2c-1.6,1.6-2.2,3.9-2.9,6.1c-5.5,17.9-5.5,36.1-1.2,54.8
				C574.7,348,575.2,349.2,575.6,350.5z"/>
			<path class="st5" d="M240.6,363.3c0.3-1.3,0.4-2.6,0.4-3.8c0-6.1-2.6-8.4-7.5-5.2c-3,2-5.6,5.1-7.7,8.4c-6.5,10.7-9,23-11,37.4
				C227.9,390.1,236.7,379,240.6,363.3z"/>
			<path class="st6" d="M572.1,526.9c-89.1,6.1-169.4-12.4-244.6-33.1c70.1,35.6,154.6,53.8,244,47.4
				c81.5-5.6,155.9-30.5,217.4-69.1C724.7,496.1,648.3,521.7,572.1,526.9z"/>
			<polygon class="st6" points="301.6,590.9 320.1,545.9 312.5,542.8 283.1,571.8 283,571.7 282.7,530 275,526.7 256.4,571.7 
				261.7,573.9 277.2,536.1 277.5,536.1 277.5,580.6 280.8,581.9 311.9,550.9 311.9,551 296.6,588.7 			"/>
			<path class="st6" d="M332.3,601l4.8,1.6c0.3-0.9,0.3-1.7,0.4-2.6c0.3-0.9,0.4-1.7,0.7-2.6l4.2-13.2c1.3-4.3,1.6-8,0.3-10.7
				c-1.3-2.7-4.2-4.8-8.5-6.4c-2.2-0.7-4.3-1.2-6.8-0.9s-4.6,0.7-6.5,1.7l2,4.3c1.6-0.7,3.3-1.2,4.8-1.2c1.7,0,3.5,0.3,5.1,0.7
				c2.5,0.7,3.9,2,4.8,3.5c0.9,1.6,1.2,3.5,0.3,5.6l-0.3,0.9l-2-0.7c-1.7-0.7-3.9-1.3-6.1-1.7c-2.2-0.7-4.3-0.7-6.5-0.7
				s-3.9,0.7-5.6,1.7c-1.7,1.2-3,2.9-3.8,5.2c-0.4,1.6-0.7,2.9-0.4,4.2c0.3,1.3,0.7,2.6,1.6,3.8c0.7,1.2,1.7,2,2.9,2.9
				c1.2,0.9,2.6,1.6,4.2,2c2.2,0.7,4.3,0.9,6.4,0.4c2-0.4,3.8-1.3,5.2-2.6h0.3c-0.3,0.7-0.4,1.3-0.7,2.2
				C332.4,599.4,332.3,600.3,332.3,601z M331.4,593.8c-0.9,0.7-2.2,0.9-3.3,1.2c-1.3,0.3-2.6,0-3.9-0.4c-1.7-0.7-3.3-1.6-4.2-2.6
				c-1.2-1.3-1.3-2.9-0.7-4.6c0.7-2.2,2-3.3,4.2-3.8c2.2-0.3,4.8,0,8.1,1.2l5.1,1.7l-0.7,2c-0.4,1.3-1.2,2.5-1.7,3.3
				C333.2,592.5,332.3,593.4,331.4,593.8z"/>
			<path class="st6" d="M358.3,575.2l-4.8-1.3c-0.3,1.2-0.4,2.2-0.7,3.5c-0.3,1.3-0.7,2.6-0.9,3.9l-6.4,23.9l5.1,1.3l4.2-15.2
				c0.9-3.5,2.5-6.1,4.3-8c1.9-1.9,4.3-2,7.7-1.3c0.9,0.3,1.7,0.7,2.6,1.2l1.7-5.2c-0.3-0.3-0.7-0.4-0.9-0.7
				c-0.3-0.3-0.7-0.3-1.2-0.4c-1.3-0.3-2.5-0.4-3.8-0.4c-1.2,0-2.2,0.3-3.3,0.4c-1.2,0.3-2,0.7-2.6,1.3c-0.7,0.7-1.6,1.2-2,1.7H357
				c0.3-0.9,0.4-1.7,0.7-2.6C357.9,576.9,358.2,576,358.3,575.2z"/>
			<polygon class="st6" points="380.4,580.8 375.5,579.8 368.3,611.2 373.2,612.2 			"/>
			<path class="st6" d="M379.9,571.8c1.2,0.3,2,0,2.9-0.4s1.6-1.3,1.7-2.5c0.3-1.2,0-2-0.4-2.9s-1.3-1.6-2.5-1.7
				c-1.2-0.3-2,0-2.9,0.4s-1.6,1.3-1.7,2.5c-0.3,1.2-0.3,2.2,0.3,3C377.8,571,378.7,571.7,379.9,571.8z"/>
			<path class="st6" d="M391.3,590.3c0.4-0.4,1.2-0.9,1.7-1.2c0.7-0.3,1.3-0.4,2.2-0.4c0.9,0,1.6,0,2.2,0.3c1.6,0.3,2.6,0.9,3.8,1.7
				c0.9,0.9,1.6,2,2,3.3l4.8-2c-0.7-2.2-1.7-3.9-3.5-5.2c-1.7-1.3-3.8-2.2-5.6-2.6c-1.6-0.3-2.9-0.4-4.3-0.3
				c-1.3,0.3-2.6,0.4-3.9,1.2c-1.3,0.4-2.2,1.3-3.3,2.5c-0.9,1.2-1.6,2.5-1.7,3.9c-0.3,1.7-0.3,3,0.3,4.2c0.4,1.2,1.2,2.2,1.7,3
				c0.9,0.9,2,1.7,3,2.2c1.3,0.7,2.6,1.3,3.9,2c0.7,0.3,1.6,0.7,2.2,1.2c0.7,0.4,1.3,0.9,2,1.3c0.7,0.4,0.9,1.2,1.3,1.7
				c0.3,0.7,0.3,1.3,0.3,2.2c-0.3,0.9-0.4,1.6-1.2,2.2c-0.7,0.4-1.2,0.9-2,1.3c-0.7,0.3-1.6,0.4-2.5,0.4s-1.7,0-2.5-0.3
				c-1.7-0.4-3.3-1.2-4.3-2.2c-1.2-1.2-2-2.2-2.6-3.8l-4.6,2.2c1.2,2.6,2.5,4.3,4.2,5.6s3.9,2.2,6.5,2.6c1.6,0.3,3,0.4,4.6,0.4
				s2.9-0.3,4.2-0.9c1.3-0.4,2.5-1.3,3.3-2.5c0.9-1.2,1.6-2.6,2-4.3c0.3-1.6,0.3-2.9,0-4.2c-0.3-1.2-0.9-2.2-1.7-3
				c-0.7-0.9-1.7-1.7-2.9-2.5c-1.2-0.7-2.5-1.3-3.8-1.7c-0.9-0.4-2-0.9-2.9-1.3c-0.9-0.4-1.7-0.9-2.2-1.6c-0.7-0.4-1.2-1.2-1.6-1.6
				c-0.4-0.4-0.4-1.2-0.3-1.7C390.4,592.1,390.8,590.8,391.3,590.3z"/>
			<path class="st6" d="M418,600.2c0.7-1.3,1.6-2.6,2.6-3.5c0.9-0.9,2.2-1.7,3.8-2c1.3-0.4,3-0.4,4.6-0.3c1.6,0.3,2.9,0.7,4.2,1.6
				c1.2,0.7,2.2,2,3,3.5l4.6-3.3c-1.3-2-2.9-3.5-4.8-4.6c-2-1.2-3.9-1.7-6.4-2.2c-2.5-0.4-4.6-0.3-6.8,0.3c-2.2,0.7-3.9,1.3-5.6,2.6
				s-3,2.9-4.2,4.8c-1.2,2-1.7,4.2-2.2,6.5c-0.4,2.3-0.3,4.8,0.3,7.1c0.4,2.2,1.3,4.2,2.5,5.9s2.6,3,4.6,4.2
				c1.7,1.2,3.9,1.7,6.4,2.2c2.2,0.4,4.3,0.3,6.5-0.3c2.2-0.4,4.2-1.6,5.9-3l-3.3-4.3c-2.2,2.5-5.1,3.3-8.5,2.6
				c-1.6-0.3-2.9-0.7-4.2-1.6c-1.2-0.9-2.2-1.7-2.9-3c-0.7-1.3-1.3-2.6-1.6-4.2c-0.3-1.6-0.3-3,0-4.6
				C416.7,603.1,417.3,601.6,418,600.2z"/>
			<path class="st6" d="M466.6,595.4c-2-1.2-4.2-1.7-6.5-2c-2.5-0.3-4.6,0-6.8,0.7c-2.2,0.7-3.9,1.6-5.6,2.9c-1.6,1.3-2.9,3-3.9,5.1
				c-1.2,2-1.7,4.2-2,6.8s0,4.8,0.7,7.1c0.7,2.2,1.6,3.9,2.9,5.6s2.9,3,4.8,3.9c2,1.2,4.2,1.7,6.5,2c2.5,0.3,4.6,0,6.8-0.7
				c2.2-0.7,3.9-1.6,5.6-2.9c1.6-1.3,2.9-3,3.9-5.1c1.2-2,1.7-4.2,2-6.8s0-4.8-0.7-7.1s-1.6-3.9-2.9-5.6
				C470.4,597.7,468.6,596.4,466.6,595.4z M469.5,611.6c-0.3,1.7-0.7,3.3-1.3,4.6c-0.7,1.3-1.6,2.6-2.6,3.5
				c-1.2,0.9-2.5,1.7-3.8,2.2s-3,0.7-4.6,0.4c-1.7-0.3-3.3-0.7-4.3-1.3c-1.3-0.7-2.5-1.7-3.3-2.9c-0.9-1.3-1.6-2.6-1.7-3.9
				c-0.4-1.6-0.4-3-0.3-4.8c0.3-1.7,0.7-3.3,1.3-4.6c0.7-1.3,1.6-2.6,2.6-3.5c1.2-1.2,2.5-1.7,3.8-2.2s3-0.7,4.6-0.4
				c1.7,0.3,3.3,0.7,4.3,1.3c1.3,0.7,2.5,1.7,3.3,2.9c0.9,1.3,1.6,2.6,1.7,3.9C469.8,608.3,469.8,609.9,469.5,611.6z"/>
			<path class="st6" d="M497,622.6c-0.4,0.7-0.9,1.2-1.7,1.6c-0.7,0.3-1.6,0.7-2.2,0.7s-1.6,0.3-2.5,0.3c-1.7-0.3-3.3-0.7-4.6-1.3
				c-1.3-0.9-2.2-2-3.3-3.3l-4.2,3c1.6,2.5,3,3.9,5.1,5.1c2,0.9,4.2,1.6,6.8,1.6c1.6,0,3,0,4.6-0.3s2.9-0.9,4.2-1.6
				c1.3-0.7,2.2-1.7,3-3c0.7-1.3,1.3-2.9,1.3-4.6c0-1.6-0.3-2.9-0.7-4.2c-0.4-1.2-1.2-2.2-2-2.9c-0.9-0.7-2-1.3-3.3-2
				s-2.5-0.9-3.9-1.3c-1.2-0.3-2-0.4-2.9-0.9c-0.9-0.3-1.7-0.7-2.5-1.2c-0.7-0.4-1.3-0.9-1.7-1.3c-0.4-0.4-0.7-1.2-0.7-1.7
				c0-0.6,0.3-1.3,0.7-2s0.9-1.2,1.6-1.3c0.7-0.3,1.3-0.7,2-0.7c0.7-0.3,1.6-0.3,2.2-0.3c1.6,0,2.9,0.4,3.9,1.3
				c1.2,0.7,2,1.7,2.6,2.9l4.3-2.6c-1.2-2.2-2.5-3.8-4.2-4.6c-1.7-1.2-3.9-1.6-6.1-1.7c-1.6,0-2.9,0.3-4.3,0.4
				c-1.3,0.3-2.6,0.9-3.8,1.6c-1.2,0.7-2.2,1.7-2.9,2.9c-0.7,1.2-1.2,2.6-1.3,4.2c0,1.7,0.3,3,0.7,4.2c0.7,1.2,1.3,2,2.2,2.6
				c0.9,0.6,2.2,1.3,3.5,1.7s2.6,0.9,4.2,1.3c0.9,0.3,1.7,0.4,2.5,0.7c0.7,0.3,1.6,0.7,2.2,1.2c0.7,0.4,1.2,0.9,1.6,1.6
				c0.3,0.7,0.4,1.3,0.4,2.2C497.5,621,497.4,621.9,497,622.6z"/>
			<polygon class="st6" points="551.9,629.1 555.2,629.1 570.4,587.2 570.5,587.2 572.3,628.2 578.1,627.9 575.9,579.1 567.7,579.5 
				553.2,618.5 553.1,618.5 535.3,580.8 526.9,581.2 529.2,630.2 534.8,629.9 532.8,589 533.1,589 			"/>
			<path class="st6" d="M598.2,605.4c-2.2,0.4-4.3,1.2-6.1,2.2c-1.7,0.9-3.3,2.2-4.6,3.9c-1.2,1.7-1.6,3.8-1.3,6.5
				c0.3,1.6,0.7,2.9,1.3,3.9c0.7,1.2,1.7,2,2.9,2.6c1.2,0.7,2.5,1.2,3.8,1.3c1.6,0.3,3,0.3,4.6,0.3c2.5-0.3,4.3-1.2,5.9-2.2
				c1.6-1.3,2.9-2.6,3.8-4.6h0.3c0,0.7,0.3,1.6,0.3,2.5c0.3,0.9,0.3,1.7,0.7,2.5l5.1-0.7c-0.3-0.9-0.4-1.7-0.7-2.6
				c-0.3-0.9-0.3-2-0.4-2.9l-1.6-13.9c-0.7-4.6-2-8-4.2-9.8c-2.2-2-5.6-2.6-10.3-2.2c-2.2,0.3-4.3,0.9-6.5,2
				c-2.2,1.2-3.8,2.5-5.2,4.3l3.8,3c1.2-1.3,2.5-2.5,3.9-3c1.6-0.7,3-1.3,4.8-1.6c2.5-0.3,4.3,0.3,5.9,1.2c1.6,1.2,2.5,2.6,2.6,5.1
				l0.3,0.9l-2,0.3C602.6,604.8,600.3,604.9,598.2,605.4z M607,609l0.3,2c0,1.3,0,2.6-0.3,3.8c-0.3,1.3-0.7,2.2-1.3,3.3
				c-0.7,0.9-1.6,1.7-2.6,2.5c-1.2,0.7-2.5,1.2-3.9,1.3c-2,0.3-3.8,0-5.1-0.7s-2.2-2-2.5-4.2s0.4-3.9,2.5-5.1c1.7-1.3,4.3-2,7.7-2.5
				L607,609z"/>
			<path class="st6" d="M633,592.6c1.2-0.3,2-0.3,2.9,0l-0.4-5.5c-0.4-0.3-0.7-0.3-1.2-0.3c-0.4,0-0.7,0-1.2,0.3
				c-1.3,0.3-2.5,0.7-3.5,1.2c-1.2,0.4-2,1.2-2.6,1.7c-0.9,0.7-1.6,1.6-2,2.2c-0.7,0.9-0.9,1.7-1.2,2.5h-0.3
				c-0.3-0.9-0.3-1.7-0.4-2.6c-0.3-0.9-0.4-1.7-0.4-2.6l-4.8,0.7c0.3,1.2,0.4,2.2,0.7,3.5s0.4,2.6,0.7,4.2l3.9,24.6l5.2-0.9
				l-2.5-15.6c-0.7-3.8-0.3-6.8,0.7-9C627.8,594.7,629.8,593.1,633,592.6z"/>
			<polygon class="st6" points="673.8,612.6 654.1,598.9 666,581.2 658.7,582.8 647.5,599.7 640.7,566.2 635.8,567.2 646,618.4 
				651.2,617.2 647.8,600.7 666.4,614.2 			"/>
			<path class="st6" d="M680,607c1.7,1.2,3.8,1.7,5.6,2.2c2.2,0.4,4.3,0.3,6.8-0.4c2.9-0.7,5.2-2,7.2-3.5s3.5-3.8,4.6-6.5l-4.6-2
				c-0.9,2-1.7,3.5-3.3,4.6c-1.3,1.3-3,2.2-5.2,2.6c-1.3,0.4-2.6,0.4-3.9,0.3c-1.3-0.3-2.6-0.7-3.8-1.3c-1.2-0.7-2.2-1.6-2.9-2.6
				c-0.7-1.2-1.6-2.2-2-3.8l24.6-6.5l-0.4-1.7c-0.7-2.6-1.6-4.8-2.9-6.5c-1.3-1.7-2.6-3.3-4.2-4.3c-1.7-1.2-3.5-1.7-5.5-2
				s-3.9-0.3-6.1,0.4c-2.2,0.7-4.2,1.6-5.9,2.9c-1.7,1.3-3,2.9-3.9,4.6c-1.2,1.7-1.7,3.8-2,6.1c-0.3,2.2,0,4.6,0.7,7.1
				c0.7,2.2,1.6,4.2,2.6,6.1C677,604.4,678.3,605.7,680,607z M678.8,584.8c1.3-2,3.3-3.5,6.1-4.2c2.9-0.7,5.2-0.7,7.2,0.7
				c2,1.2,3.5,3,4.2,5.6l-19.1,5.1C677.1,589.5,677.5,587,678.8,584.8z"/>
			<path class="st6" d="M714,591.3c0.4,1.6,1.2,3,1.7,4.2c0.7,1.3,1.3,2.2,2.2,2.9s2,1.2,3,1.3c1.3,0.3,2.6,0,4.6-0.7
				c0.9-0.3,1.7-0.7,2.9-1.3c0.9-0.4,1.7-1.2,2.6-1.7l-1.7-4.6c-0.7,0.7-1.3,1.2-2,1.6s-1.6,0.7-2.2,0.9c-1.2,0.4-2,0.4-2.6,0.3
				s-1.3-0.7-1.7-1.2c-0.4-0.7-0.9-1.3-1.3-2.2c-0.3-0.9-0.7-1.7-0.9-2.9l-4.8-15.3l8.8-2.9l-1.3-4.2l-8.8,2.9l-2.6-8.8l-5.1,1.6
				l2.6,8.8l-6.5,2.2l1.3,4.3l6.5-2.2L714,591.3z"/>
			<path class="st6" d="M748.4,575.2c2.5,2.5,4.8,4.2,7.7,5.5s5.9,2,9.3,2c3.3,0,6.4-0.7,9.4-2c3.5-1.6,6.4-3.5,8.5-5.9
				c2.2-2.5,3.8-5.5,4.6-9l-5.2-1.7c-0.7,2.6-2,5.1-3.5,7.1c-1.7,2-3.8,3.5-6.5,4.6c-2.5,1.2-5.1,1.6-7.5,1.3s-4.6-0.7-6.8-1.7
				c-2.2-1.2-4.2-2.6-5.9-4.6s-3.3-4.2-4.2-6.8c-0.9-2.5-1.6-5.1-1.7-7.7c0-2.6,0.3-5.1,1.2-7.5c0.7-2.2,2-4.3,3.5-6.4
				c1.6-1.7,3.8-3.3,6.1-4.3c2.2-0.9,4.3-1.3,6.5-1.2c2.2,0,4.6,0.7,6.5,2l3.3-5.2c-2.9-1.7-5.9-2.6-9.3-2.6c-3.3,0-6.1,0.7-9.3,2
				c-3.3,1.3-5.9,3.3-8.1,5.6s-3.9,5.1-5.1,8c-1.2,3-1.6,6.1-1.6,9.4c0,3.3,0.9,6.8,2.2,10.1C744.2,569.9,746.2,572.7,748.4,575.2z"
				/>
			<path class="st6" d="M794.6,540.3c0.9-1.2,2-2,3.5-2.9c2.2-1.2,4.2-1.3,5.9-0.4c1.7,0.9,3.3,2.6,4.3,5.1l8.8,17.3l4.6-2.5
				l-8.8-17.8c-0.9-1.7-1.7-3.3-3-4.3c-1.3-1.2-2.5-2.2-3.8-2.6c-1.3-0.7-2.9-0.9-4.6-0.7c-1.6,0-3.3,0.7-5.2,1.6
				c-1.2,0.4-2,1.3-2.9,2s-1.6,1.6-2,2.5c-0.7,0.9-0.9,1.7-1.3,2.6c-0.3,0.9-0.4,1.6-0.4,2.5h-0.3L778.7,521l-4.6,2.5l23.3,46.7
				l4.6-2.5l-7.1-14c-0.9-1.7-1.3-3.3-1.7-4.8c-0.3-1.6-0.4-3-0.3-4.3C793.3,542.5,793.8,541.3,794.6,540.3z"/>
			<polygon class="st6" points="835,549.3 819.4,520.9 814.7,523.7 830.6,551.9 			"/>
			<path class="st6" d="M809.8,515.3c0.9,0.3,2,0.3,2.9-0.4s1.6-1.3,1.7-2.5c0.3-1.2,0.3-2-0.4-3c-0.4-0.9-1.3-1.6-2.2-1.7
				c-1.2-0.3-2-0.3-2.9,0.3c-0.9,0.4-1.6,1.3-1.7,2.5c-0.3,1.2-0.3,2,0.4,2.9C808.2,514.1,808.8,514.9,809.8,515.3z"/>
			<path class="st6" d="M841.5,512.4c2-1.3,3.9-1.7,5.6-0.9c1.7,0.7,3.3,2.2,4.8,4.3l10.3,16.5l4.3-2.9l-10.6-16.9
				c-1.2-1.7-2.2-3-3.5-4.2s-2.6-2-3.9-2.5c-1.6-0.4-3-0.4-4.6-0.3c-1.6,0.3-3.3,0.9-5.1,2c-1.2,0.7-2,1.3-2.6,2.2
				c-0.7,0.9-1.3,1.7-1.7,2.6s-0.9,1.7-1.2,2.6c-0.3,0.9-0.3,1.7-0.3,2.5h-0.3l-12.9-20.7l-4.3,2.9l27.6,44.2l4.3-2.9l-8.4-13.3
				c-0.9-1.6-1.7-3-2.2-4.6c-0.4-1.6-0.7-2.9-0.7-4.2s0.4-2.6,1.3-3.8C839.2,514.4,840.2,513.3,841.5,512.4z"/>
			<path class="st6" d="M892.2,507.3c0.7,0.7,1.2,1.3,1.6,2l3.9-3c-0.7-0.9-1.3-1.7-2.2-2.6s-1.7-2-2.6-3.3l-14.7-19.7L874,484
				l9.3,12.7c1.2,1.6,2,2.9,2.5,4.3c0.7,1.6,0.9,2.9,0.9,4.2c0,1.3-0.3,2.6-0.9,3.9c-0.7,1.3-1.7,2.5-3,3.3c-2,1.6-3.9,2-5.6,1.3
				c-1.7-0.4-3.5-2-5.2-4.2L860.4,494l-4.2,3.3l11.9,16c1.2,1.6,2.5,2.9,3.8,3.9c1.3,1.2,2.6,1.7,4.2,2c1.6,0.4,2.9,0.3,4.6,0
				c1.6-0.4,3.3-1.3,4.8-2.5c1.2-0.7,2-1.7,2.6-2.6c0.7-0.9,1.3-2,1.6-2.9s0.7-2,0.7-3c0.3-0.9,0-2-0.3-2.6h0.3
				C891.1,506,891.5,506.8,892.2,507.3z"/>
			<path class="st6" d="M919.1,484.6c0.7,0.7,1.3,1.3,1.7,1.7l3.8-3.3c-0.7-0.7-1.3-1.2-2-1.7c-0.7-0.7-1.3-1.3-2-2l-9-10.6
				c-3-3.5-5.9-5.2-9-5.6c-3-0.3-6.1,1.2-9.7,4.2c-1.7,1.6-3,3.3-4.2,5.5c-1.2,2-1.7,4.2-1.7,6.5l4.6,0.4c0.3-1.7,0.7-3.3,1.6-4.8
				c0.9-1.6,2-2.9,3.3-3.9c1.7-1.7,3.8-2.5,5.5-2.5s3.5,0.9,5.1,2.6l0.7,0.7l-1.6,1.3c-1.6,1.3-3,2.6-4.6,4.3
				c-1.6,1.7-2.9,3.5-3.9,5.2c-1.2,1.7-1.6,3.8-1.6,5.9c0,2,0.9,3.9,2.6,6.1c1.2,1.2,2.2,2,3.3,2.5c1.3,0.4,2.6,0.7,3.8,0.7
				c1.3-0.3,2.6-0.4,3.9-1.2c1.3-0.7,2.6-1.6,3.8-2.6c1.7-1.7,3-3.3,3.8-5.2c0.7-1.9,0.7-3.9,0.4-5.6h0.3
				C918.1,483.3,918.7,483.9,919.1,484.6z M913.6,486.8c-0.4,1.2-1.3,2.2-2.5,3.3c-1.6,1.3-3,2-4.6,2.2c-1.6,0.3-2.9-0.4-4.2-2
				c-1.6-1.7-1.7-3.5-0.9-5.5c0.9-2,2.6-4.2,5.1-6.4l3.9-3.5l1.3,1.6c0.9,1.2,1.6,2.2,2,3.3c0.4,1.2,0.7,2.5,0.7,3.5
				C914.5,484.4,914.1,485.7,913.6,486.8z"/>
			<path class="st6" d="M922.6,445.6c1.7-1.7,3.5-2.6,5.5-2.2c2,0.3,3.8,1.3,5.6,3.3l13.9,13.6l3.8-3.8l-14-13.9
				c-1.3-1.3-2.9-2.5-4.2-3.3c-1.6-0.9-3-1.3-4.3-1.3c-1.6,0-2.9,0.3-4.3,0.9c-1.6,0.7-3,1.7-4.3,3.3c-0.9,0.9-1.6,1.7-2,2.9
				c-0.4,1.2-0.9,2-1.2,3c-0.3,0.9-0.4,2-0.4,2.9s0.3,1.7,0.3,2.5h-0.3l-17.3-16.9l-3.8,3.8l37,36.4l3.8-3.8l-11.1-11
				c-1.3-1.3-2.5-2.6-3.3-3.9c-0.9-1.3-1.3-2.6-1.6-3.9s-0.3-2.6,0.3-3.9C921,449.1,921.3,446.6,922.6,445.6z"/>
			<path class="st6" d="M970.4,428.1c0.7,0.4,1.3,1.2,2,1.6l3-3.9c-0.9-0.7-1.7-1.3-2.9-2.2c-1.2-0.7-2.2-1.6-3.3-2.5l-18.8-15.3
				l-3.3,4.2l12,9.8c1.3,1.3,2.6,2.5,3.5,3.8s1.6,2.5,2,3.8c0.3,1.3,0.4,2.6,0,3.9c-0.3,1.3-1.2,2.6-2,3.9c-1.6,2-3.3,2.9-5.2,2.9
				c-2,0-3.9-0.9-6.1-2.6l-14.9-12l-3.3,4.2l15.3,12.4c1.6,1.3,3,2.2,4.6,2.9c1.6,0.7,3,0.9,4.6,0.9s2.9-0.4,4.3-1.3
				c1.6-0.7,2.9-2,4.2-3.8c0.9-1.2,1.3-2.2,1.7-3.3c0.4-1.2,0.7-2.2,0.9-3.3c0.3-1.2,0.3-2.2,0-3c-0.3-0.9-0.4-1.7-0.9-2.6v-0.3
				C969.1,427,969.9,427.5,970.4,428.1z"/>
			<path class="st6" d="M990.8,398.2c0.7,0.4,1.6,0.9,2.2,1.2l2.6-4.2c-0.7-0.3-1.6-0.7-2.5-1.3c-0.9-0.4-1.7-0.9-2.5-1.6l-11.4-7.7
				c-3.8-2.6-7.2-3.5-10.1-3c-3,0.4-5.6,2.6-8.1,6.8c-1.3,2-2.2,3.9-2.6,6.4c-0.7,2.5-0.4,4.6,0,7.1l4.8-0.9
				c-0.3-1.7-0.3-3.3,0.3-5.1c0.4-1.7,1.2-3.3,2-4.6c1.3-2.2,2.9-3.3,4.6-3.9c1.7-0.4,3.5-0.3,5.5,1.2l0.9,0.4l-1.2,1.7
				c-1.2,1.7-2.2,3.5-3.3,5.5c-1.2,2.2-2,4.2-2.5,6.1c-0.4,2.2-0.4,4.2,0.3,6.1c0.4,2,1.7,3.8,4.2,5.1c1.3,0.9,2.6,1.3,3.9,1.6
				c1.3,0.3,2.6,0,3.8-0.4c1.3-0.4,2.5-1.3,3.5-2.2c1.2-0.9,2-2.2,2.9-3.5c1.3-2,2-4.2,2-6.1s-0.3-3.9-1.2-5.6V397
				C989.5,397.3,990.3,397.8,990.8,398.2z M986.1,401.8c-0.3,1.3-0.7,2.6-1.6,3.8c-1.2,1.7-2.2,2.9-3.8,3.5c-1.3,0.7-3,0.4-4.6-0.7
				c-1.7-1.3-2.6-2.9-2.5-5.1c0.3-2.2,1.3-4.6,3-7.7l2.9-4.3l1.7,1.2c1.2,0.7,2,1.7,2.6,2.6c0.7,0.9,1.3,2,1.6,3
				C986.2,399.3,986.2,400.4,986.1,401.8z"/>
			<path class="st6" d="M610.9,662.6c-175.7,23.4-339.2-18.4-441.2-85.7c91.2,82,264.9,136.2,451.7,104.8
				c225.8-37.7,398.3-151.9,435.2-281.1C996.3,520.9,825.1,633.9,610.9,662.6z"/>
			<path class="st5" d="M992.9-2.1C961.8-8.9,936.8,13,936.8,13c-8-65.5-116.1-120.6-116.1-120.6C938.2-110.6,992.9-2.1,992.9-2.1z
				 M970.3,82.3c0,0,124.3,330.8-257.6,398.6c0,0,15.6-29.3,62.3-48c0,0-66.8-23.3-65.1-32c1.7-8.8,126.1,18.4,149.5,1.2
				c0,0,126.9-188.5-112-301l21.1,43.4c0,0-65.8,11.9-89.5-57.8c0,0-136.3-23.4-177.8-158C500.9-71.5,803-263.4,970.3,82.3z"/>
			<path class="st6" d="M678.4,86.5c23.9,69.7,89.5,57.8,89.5,57.8l-21.1-43.4c239,112.5,111.8,301,112,301
				c-23.4,17.3-147.8-9.8-149.5-1.2c-1.7,8.7,65.1,32,65.1,32c-46.7,18.7-62.3,48-62.3,48C1094.4,413,969.9,82.2,969.9,82.2
				C802.6-263.4,500.4-71.5,500.4-71.5C542.1,63.2,678.4,86.5,678.4,86.5z M844.7,89.5c0,0,144.9,102.6,65.9,263.7
				c0,0,66.2-182.9-141.8-268.8L844.7,89.5z M601.6-88.7c9.7-4.8,21.5-0.7,26.3,9.3c4.8,9.7,0.7,21.5-9.3,26.3
				c-9.8,4.8-21.5,0.7-26.3-9.3S591.8-83.8,601.6-88.7z"/>
			<path class="st6" d="M936.8,13.3c0,0,25-22.1,56.1-15.2c0,0-54.6-108.6-172-105.4C820.7-107.4,928.8-52.5,936.8,13.3z"/>
			<path class="st6" d="M827.9,213c-6.8-0.9-13.9-0.4-20.7,0.9c-26,5.1-43.2,31.8-37,57.3c0.3,1.6,0.9,3.5,0.3,4.6
				c-5.1,8.5-10.7,16.2-20,22.8c0.7-3,1.3-4.8,1.7-6.8c4.2-16,5.6-32,0-48c-4.8-13.6-13.2-24.1-28.9-25.6
				c-12.3-1.3-32.4,9.4-38.3,20.4c-1.3,2.2-2,5.1-3.8,6.5c-12.4,12.3-18.7,27.6-23.3,43.8c-2,10.3-2.5,18.8-2,27
				c-3.5,10.3-8.4,22.1-11.9,28.9c-2.6,4.8-7.5,4.3-9.7-0.9c-2.2-5.2-3.8-11-4.2-16.6c-3.5-44.5,3.3-100.9,11.6-143.9
				c2.6-14,2-15.6-11.6-19.2c-2-0.4-3.9-0.9-5.9-1.3c-12.7-2.2-15.2-1.3-17.3,11.9c-3,17.1-6.5,47.1-8.5,64.5
				c-0.9,7.7-0.7,15.3-0.9,23.4c-12.3-11-19.1-11.1-31.1-1.3c-3.5,2.9-6.8,6.1-9.7,10.1c-12.3,17.1-16.2,37-14.3,58.7
				c0,0.9,0,1.7,0.3,2.6c0.3,0.3,0.3,0.4,0.3,0.7c0.4,2.2,0.9,4.6,1.3,6.8c-2.9,12.4-7.2,26.7-13.9,34.3c-1.7,2-5.2,4.6-7.5,4.2
				c-2-0.4-4.2-4.3-4.6-7.2c-2-13.2-0.3-31.5,4.2-44.1c2-5.2,0.3-8-4.6-9.3c-2.9-0.7-5.6-1.2-8.4-1.6c0.3-4.2,0.7-8.4,0.4-12.4
				c-1.3-15.2-10.3-24.1-23.4-22.4c-4.6,0.7-9.7,2.5-13.6,5.2c-22.1,14.9-34.3,36.1-38.7,62.3c-1.2,6.1,0,13.9,1.2,19.2
				c-5.9,11.1-14.3,21.1-26,25.6c-11.4,4.6-20.7-0.3-23.4-13.2c-5.6-25.6-1.6-49.7,11.9-71.3c2-3,5.5-5.6,8.8-7.1
				c5.2-2.2,8.1,0,8.1,5.2c-0.4,2-1.7,3.8-3.9,6.5c-2,2.5-1.7,4.2,0,6.4c2.9,3.9,8.8,6.8,12.4,5.5c4.8-1.6,6.8-5.6,7.2-10.7
				c0.4-5.9-0.3-8.8-2.2-12.7c-4.2-10.7-12.7-17.8-22.8-18.2c-11.6-0.7-21.3,4.8-28.5,14c-23.7,29.8-28.9,64.6-17.9,102.4
				c2.5,8.5,7.7,16.9,13.6,23.4c9.3,10.7,20.8,14.5,33.8,8.5c10.1-4.6,17.9-12.3,24.3-21.5c2.6-3.8,6.8-10.7,11-17.9
				c1.3,2.9,3,6.1,4.6,8.4c4.3,6.1,9.8,12,16,16.2c10.7,7.1,20.8,3.3,26.3-8.1c3-6.4,5.1-13.2,7.7-20.2c1.6,3.8,2.6,6.8,4.2,10.1
				c6.5,13.3,18.4,30.2,31.1,22.4c12.4-7.7,18.7-33.1,22.1-47c0.3-0.7,0.4-1.7,0.7-3.3c1.2,2.6,2.2,5.1,3.3,7.5
				c4.3,4.6,8.5,9.4,13.2,13.2c9,7.1,23.9,8.1,28.8-8.8c2.6-9.4,4.6-19.2,6.8-29.2c2,6.1,3.5,12.4,6.1,18.4
				c6.8,16,18.7,20.2,32.2,11.4c4.3-2.9,8.5-6.8,11.4-11.1c3.3-5.2,8.1-15.8,11.4-26.3c7.5,7.5,16.9,10.1,29.3,8.4
				c11.4-1.7,20.4-8.1,28.8-15.8c1.6-1.3,3.8-3.5,5.2-3.3c14.9,2.6,24.7-5.1,33.3-15.3c6.8-8.4,12.4-17.3,18.8-26.5
				c3,4.8,7.5,9.7,9.4,15.3c1.7,5.1,2.2,11.1,1.7,16.6c-0.3,4.3-6.4,7.2-9.4,5.1c-2-1.6-2.6-4.3-4.2-7.1c-3.5-0.7-5.2,1.3-6.4,4.8
				c-2.5,7.5,3,16.2,12,19.1c13.2,4.2,32.2-1.7,40.8-12.9c8.5-11,8.8-27.5,0.4-40c-5.1-7.7-11.1-14.5-15.8-22.4
				c-3-5.1-5.2-11.1-5.6-17.1c-0.7-15.8,8.5-26.7,21.7-27.6c6.1-0.4,8.4,1.7,8,8.1c-0.4,7.7-7.7,15.8-15.6,18.4
				c-1.7,0.7-4.2,2.5-4.6,4.2c-1.6,5.5,3.3,14.3,9,17.3c4.6,2.5,11,1.2,15.6-3.5c6.8-6.8,10.1-15.3,11.1-24.3
				C852.9,233.8,847.7,215.6,827.9,213z M491.9,312.5c-1.6,5.2-3.8,10.6-5.6,15.6c-1.3,3.5-1.6,6.4,2.2,8.8c0.9,0.4,1.7,2.2,1.7,3.3
				c-0.7,8.8-1.6,17.5-2.5,26.5c-0.3,1.2-0.4,2.5-0.9,3.5c-1.7,5.2-4.2,10.6-10.3,10.7c-6.8,0.3-8.4-5.6-11.1-12
				c-3.8-17.5-2.6-36.1,8.5-52.8c2.6-3.8,6.8-6.5,10.6-9.3c1.7-1.3,4.6-0.7,7.2-0.9C491.9,308,492.5,310.3,491.9,312.5z M589.6,350
				c-0.7,1.3-2,2.5-3.3,3.5c-5.2,4.3-8.1,3.5-10.7-3c-0.4-1.3-0.9-2.5-1.3-3.8c-4.3-18.7-4.3-36.9,1.2-54.8c0.7-2.2,1.3-4.6,2.9-6.1
				c2.9-2.9,5.9-6.5,9.4-7.2c1.7-0.3,5.6,4.8,7.1,8.4C602.8,309.3,600.3,330.2,589.6,350z M692.3,330.1c-2.5-0.4-5.6-2.9-6.8-5.1
				c-7.1-16.2-3.8-32,2.2-47.4c7.5,15.8,14.9,31.4,22.6,47.6C706.3,329.4,699.5,331.1,692.3,330.1z M728.6,299.3
				c-3.3-3.5-6.4-5.6-8.4-8.8c-9.4-14.3-15.6-29.6-15.8-47c-0.3-7.1,1.6-8.4,8.5-7.5c8.5,1.2,16.2,9.8,18.7,21.5
				C734.5,271.3,733.1,284.7,728.6,299.3z"/>
			<path class="st6" d="M317.1,385c-4.2-4.6-8-10.7-9.7-16.9c-4.6-16.6,2.2-30.5,15.2-34c5.5-1.3,7.7,0.3,9,6.1
				c1.7,8.4-3.3,18.8-10.7,23.4c-1.7,1.2-3.8,3.3-3.8,5.2c-0.3,6.1,6.5,14.5,12.9,16.5c5.2,1.7,12-0.7,14.3-7.1
				c2.9-8,5.2-16.5,5.2-24.7c-0.3-25-15.6-39.2-38.3-35.6c-29.6,5.1-46.4,35.3-38.7,64.2c-0.9,1.3-2.6,14.3-3.3,12.9
				c-4.2,12.3-8.4,24.6-13.3,36.1c-3.9,9.3-11.1,15.2-20.7,17.3c-7.5,1.7-11.6,0.3-15.6-7.5c-1.7-3.3-2.9-7.2-4.3-11.1
				c14.5-6.5,28-19.7,35.6-37c3.8-8.5,6.8-18.2,7.1-27.6c0.3-22.4-14.7-34.8-33.8-28c-7.1,2.5-14,7.2-18.8,13.2
				c-4.2,5.1-7.7,10.3-11,15.8c-5.5-27.2-24.1-49.3-57.8-56.5c-20.8-4.6-41.9-4.3-62.7-0.3c-34.7,7.1-67.8,18.4-99.3,34.3
				c-20.2,10.1-39.5,22-53.8,39.9c-12.9,16.5-17.8,34.7-8.5,54.4c8.1,17.3,22.6,27.6,41.2,31.1c8.8,1.7,11.9-2.5,9.3-10.7
				c-1.7-5.9-3.8-11.6-5.2-17.3c-4.8-18.2-2.2-35.3,10.7-49.6c5.6-6.1,12-12,19.1-16.6c31.4-21.3,66.4-33.3,103.5-39.5
				c15.2-2.5,30.2-2.6,45.1,2.5c10.1,3.5,16.6,10.3,19.7,20.7c4.6,16,1.3,31.1-5.6,45.8c-13.2,27.9-34.8,48.4-58.3,67.5
				c-6.1,5.1-12.7,9.3-19.1,13.9c-0.7-0.3-1.6-0.7-2.5-0.9c0.3-34.8,0.3-69.7,0.7-104.8c0-4.8,2.6-9.4,4.3-15.6
				c-8-7.7-18.7-10.1-30.2-9c-10.7,1.2-13.3,3.8-15.2,14.3c-1.2,6.4-2.2,12.9-2,19.5c0.7,36.6,2.2,73.2,2.2,110
				c0,24.7-1.6,49.6-3.3,74.3c-0.7,7.7-3.8,15.6-7.2,22.6C13.1,608.9,4.2,611.5-9,606.3c-1.3-0.4-2.6-1.3-3.9-1.7
				c-5.2-2.6-7.2,0.3-6.1,4.6c1.6,6.1,3.5,12.3,6.8,17.3c10.1,15.6,24.7,22.4,43.4,20.8c17.3-1.6,27.6-12.4,31.1-28
				c4.3-18.2,7.2-36.9,9-55.5c1.6-17.1,0.7-34.7,1.2-52.6c22.6,8,26,7.5,45.5-5.5c20.2-13.3,37.3-30.1,51.8-49.2
				c4.3-5.9,8.5-12,12-18.4l0,0l0,0c1.3,6.8,3.3,13.6,5.9,20.7c11.1,29.3,43.4,50.2,70.1,16.9c13.2-16.2,22.6-46.4,26-67.8
				c-1.3-2.9-3-6.5-5.1-10.7c0.4,0.3,0.7,0.7,0.9,1.2c0.3,0.3,0.3,0.7,0.4,0.9c2.9,3.8,5.9,6.8,8.5,10.6c0.3,0,0.4,0.3,0.7,0.4V410
				c5.6,5.6,10.7,10.7,15.6,16c5.1,5.5,8.1,12,7.7,19.7c-0.3,5.2-7.5,23.4-11,21.3c-2-1.3-3.3-4.2-4.8-6.4c-3.9,0-5.2,2.6-5.5,6.5
				c-0.4,8.4,7.1,16.5,16.5,17.5c13.9,1.6,33.3-23,39-36.4c5.6-13.3,2-30.7-9.3-42.4C331.1,398.2,323.5,392.3,317.1,385z
				 M225.9,362.8c2-3.3,4.6-6.4,7.7-8.4c4.8-3,7.5-0.9,7.5,5.2c0,1.3-0.3,2.6-0.4,3.8c-3.9,15.6-12.7,26.7-25.6,36.6
				C216.9,385.8,219.4,373.2,225.9,362.8z"/>
			<path class="st6" d="M504.3,96.6c-0.4-2.2-3-4.8-5.1-5.2c-1.3-0.3-3.8,2.5-5.2,4.2c-1.2,1.3-1.2,3.5-2,5.1
				c-4.3,9.4-8.4,19.1-13.3,28.3c-4.2,8-11.1,13.2-20.2,15.2c-6.8,1.6-10.7,0.3-14-6.1c-1.6-2.9-2.5-6.1-3.5-9.4
				c15.3-6.1,30.5-21.1,37.4-36.9c2.5-5.5,4.3-11.6,4.6-17.3c0.7-15.6-8.8-26-22.6-25c-4.8,0.3-10.1,1.6-14,4.2
				C419.5,71,409.6,97,409.1,128c-0.3,12.9-6.1,23.7-14.3,33.1c-3.8,4.3-8.8,2.9-10.7-2.6c-1.2-3.3-2.2-6.8-2.5-10.1
				c-1.2-21.1,0.9-41.9,9-61.6c1.3-3,0.9-5.6-2.2-6.8c-5.5-2-11-4.2-16.6-5.2c-9-1.7-11-0.3-14,8.4c-1.3,3.9-2.6,8.1-3,12.3
				c-1.2,11.1-2,22.6-2.6,34c-0.7,11-3,21.5-8.1,31.1c-2.2,4.2-5.1,8.8-10.7,8.1s-6.4-6.4-7.1-10.7c-2.6-18.7,0.9-36.6,7.1-54.2
				c2.2-6.5,2-8.1-4.2-11.4c-2.2-1.2-4.6-2.2-7.2-2.9c-10.7-3-13.6-1.7-17.5,8.4c2-34.7-5.2-66.4-30.1-93
				c-31-32.9-68.8-50.7-114.3-46.4c-44.1,4.2-80.2,25.2-110,57.4C29.4,38.3,13.6,63.8,11,95c-2.9,34,24.6,58.7,58.1,52.3
				c4.3-0.9,8.4-3.8,14.3-6.5c-15.2-9.4-19.7-22.1-18.7-36.1C68.3,56.3,92.3,19.8,134.5-3c23.9-12.7,49.2-14,72.3,4.2
				c20,15.8,30.5,37.4,36.9,61.2c6.1,23,4.6,46.4,1.6,70c-4.3,32.8-13.2,64.2-28.8,92.7c-15.6-2.5-30.5-5.6-45.4-6.8
				c-15.2-1.2-30.2,0.3-41.5,13.2c-0.9-0.3-1.7-0.3-2.6-0.4c0.9-13.6,0.7-27.5,2.9-40.8c6.4-41.6,19.5-80.7,47-113.8
				c8-9.4,17.1-17.3,29.2-20.8c2.2-0.7,3.9-2.2,5.9-3.5c-1.3-2.2-2.5-5.6-4.2-6.4c-8.5-2.6-17.5-6.1-26.3-6.1
				c-24.3,0-43.7,12.4-58.7,30.1c-45.1,51.9-52.5,112.3-35.1,176.5c5.6,21.3,21.1,36.4,43.4,41.6c22.6,5.2,44.7,1.2,64.5-9.3
				c14.9-7.7,27.6-7.5,41.9-1.3c1.7,0.7,3.5,1.6,5.2,1.7c15.2,3.3,30.2,8.1,45.5,9.4c25.4,2.2,44.1-12,48.4-35.6
				c0.9-4.6-1.2-9.7-1.7-15.3c-29.3,16.5-55.5,4.6-84.1-0.4c2.2-2.5,3.3-3.3,4.2-4.3c19.5-24.7,32.4-51.9,40.6-81.1
				c0,0.3,0,0.4,0,0.7c-0.3,13.3,0.7,26.5,6.8,38.7c4.2,8.4,9.7,15.6,19.5,16.9c9.8,1.2,16.6-4.3,21.1-12.3
				c4.3-7.7,8.1-16,11.9-24.1c0.7-1.6,1.3-3,1.3-3c4.8,8.4,9.4,17.1,15.2,25c4.8,6.4,11.4,7.2,18.2,3.3c5.6-3.3,11.6-7.5,15.8-12.4
				c5.5-6.5,9.4-14.3,14-21.7c0.4,0.7,1.3,1.3,2,2.2c16.6,20,37.3,21.1,55.5,2.6c16-16.2,24.6-36.4,27.6-59
				C505.2,104.7,505.2,100.5,504.3,96.6z M453.7,71.6c2-2.6,4.3-4.8,7.1-6.8c1.3-0.9,4.2-1.6,5.5-0.7c1.3,0.7,1.6,3.5,1.6,5.2
				c-0.3,2.2-1.2,4.6-2,6.8c-4.8,11-12.4,19.5-23.7,26.5C444.3,91.1,447.1,80.6,453.7,71.6z M140.7,263.4c0.3-1.2,0.3-2.2,0.3-3
				c13.2,0.4,26,0.9,41.5,1.3C167.2,273.9,151,273.9,140.7,263.4z"/>
			<path class="st6" d="M499.7,21.6c9-8.1,9.8-8.5,8.4-13.2c-1.6-4.6-4.8-8.8-18.4-2.2c-13.3,6.8-19.1,30.9-19.1,30.9
				C481.3,43.3,490.6,29.7,499.7,21.6z"/>
			
				<ellipse transform="matrix(0.3827 -0.9239 0.9239 0.3827 309.958 1144.885)" class="st6" cx="1011.7" cy="340.5" rx="13.6" ry="13.6"/>
			<circle class="st6" cx="223.3" cy="535.1" r="13.6"/>
			<path class="st6" d="M-23.4,80.8c0.7,1.6,1.7,2.6,2.9,3.8c1.3,1.2,2.6,1.7,4.2,2.2c1.6,0.7,3.3,0.7,4.8,0.7
				c1.7-0.3,3.3-0.4,4.6-1.3c1.6-0.7,2.6-1.7,3.8-2.9s1.7-2.6,2.5-4.2C0,77.5,0,75.8,0,74.1c-0.3-1.7-0.7-3.3-1.3-4.8
				C-2,67.7-3,66.7-4.1,65.5c-1.3-1.2-2.6-1.7-4.2-2.2c-1.6-0.7-3.3-0.7-4.8-0.7c-1.7,0.3-3.3,0.4-4.6,1.3c-1.6,0.7-2.6,1.7-3.8,2.9
				s-1.7,2.5-2.5,4.2c-0.7,1.6-0.7,3.3-0.7,5.1C-24.7,77.7-24.2,79.3-23.4,80.8z M-22.1,71.6c0.4-1.3,1.2-2.5,2-3.5
				c0.9-0.9,1.7-1.7,3-2.5c1.3-0.7,2.6-0.9,3.9-1.2c1.3-0.3,2.6,0,3.9,0.4s2.5,1.2,3.3,2c1.2,0.9,1.7,2,2.5,3.3
				c0.7,1.3,0.9,2.6,1.2,4.2s0,2.9-0.4,4.2s-1.2,2.5-2,3.5c-0.9,0.9-1.7,1.7-3,2.5c-1.2,0.7-2.5,0.9-3.9,1.2c-1.6,0.3-2.6,0-3.9-0.4
				s-2.5-1.2-3.3-2c-1.2-0.9-1.7-2-2.5-3.3c-0.7-1.3-0.9-2.6-1.2-4.2C-22.6,74.2-22.5,72.9-22.1,71.6z"/>
			<path class="st6" d="M-14.4,82.6l-0.4-6.1l2.5-0.3l4.3,5.9l2.5-0.3l-4.6-6.1c1.2-0.3,2-0.7,2.6-1.3c0.6-0.6,0.9-1.6,0.9-2.9
				c-0.3-2.6-2-3.9-5.2-3.8l-5.5,0.4l1.2,14.5L-14.4,82.6z M-12.4,69.6c0.4,0,0.7,0,1.2,0c0.3,0,0.7,0.3,1.2,0.3
				c0.3,0.3,0.7,0.4,0.9,0.7c0.3,0.3,0.3,0.7,0.4,1.2c0,0.7,0,1.2-0.3,1.3c-0.3,0.3-0.4,0.7-0.9,0.7c-0.3,0.3-0.7,0.3-1.3,0.4
				c-0.4,0-0.9,0-1.3,0.3l-2.2,0.3l-0.3-4.6L-12.4,69.6z"/>
		</g>
	</g>
	<path class="st7" d="M612.8,222c0,0,359.5-193,574.6-142.6c252.6,58.4,483,325.7,739.3,245.2c0,0-82.4,142-370.6,38.1
		c-55.3-19.6-247.6-135.8-347.8-173.3C1073.1,138.4,861.1,104,612.8,222z"/>
	<path class="st7" d="M279.1,338.7c0,0,172.1,11.1,344.1-58.4s516.2-157.3,911.3,149.9c0,0-387.7-190.5-662.4-84.2
		S370.7,368.2,279.1,338.7z"/>
	<g class="st8">
		<path class="st3" d="M-214.3,229.4C-429.4,179-788.9,372-788.9,372c248.3-118,460.2-83.6,595.5-32.6
			C-93.3,376.9,99.1,493,154.4,512.7C442.6,616.5,525,474.6,525,474.6C268.7,555.1,38.2,287.8-214.3,229.4z"/>
		<path class="st3" d="M132.9,580.3c-395.1-307.2-739.2-219.4-911.3-149.9c-7.1,2.9-14.1,5.6-21.2,8.1v109.8
			c81.4-0.8,172.7-14.5,270.1-52.1C-254.9,389.8,132.9,580.3,132.9,580.3z"/>
	</g>
</g>
<g id="Layer_2">
	<g>
		<path class="st9" d="M427.5,79.4H42.8V107c0,56.7,45.9,102.6,102.6,102.6h258c65.2,0,118.1,52.9,118.1,118.1v0
			c0,65.2-52.9,118.1-118.1,118.1h-258c-56.7,0-102.6,45.9-102.6,102.6v27.6h384.7c137.1,0,248.2-111.1,248.2-248.2v0
			C675.8,190.6,564.6,79.4,427.5,79.4z"/>
		<path class="st9" d="M390.9,253.8H3.6v34.6c0,61.9,50.2,112.1,112.1,112.1h275.2c40.5,0,73.4-32.8,73.4-73.4
			S431.4,253.8,390.9,253.8z"/>
	</g>
</g>
</svg>
