<?xml version="1.0" encoding="utf-8"?>
<!-- Generator: Adobe Illustrator 26.3.1, SVG Export Plug-In . SVG Version: 6.00 Build 0)  -->
<svg version="1.1" id="Layer_1" xmlns="http://www.w3.org/2000/svg" xmlns:xlink="http://www.w3.org/1999/xlink" x="0px" y="0px"
	 viewBox="0 0 1817 1826.8" style="enable-background:new 0 0 1817 1826.8;" xml:space="preserve">
<style type="text/css">
	.st0{fill:#231F20;}
	.st1{fill:#602DB2;}
</style>
<g>
	<g>
		<path class="st0" d="M958.8,103H150.2v89.8c0,184.6,149.6,334.2,334.2,334.2h395.8c212.4,0,384.6,172.2,384.6,384.6v0
			c0,212.4-172.2,384.6-384.6,384.6H484.4c-184.6,0-334.2,149.6-334.2,334.2v89.8h808.6c446.6,0,808.6-362,808.6-808.6v0
			C1767.4,465,1405.4,103,958.8,103z"/>
		<path class="st1" d="M839.5,671.1H22.6v112.8c0,201.7,163.5,365.2,365.2,365.2h451.7c132,0,239-107,239-239
			S971.5,671.1,839.5,671.1z"/>
	</g>
</g>
</svg>
