<?xml version="1.0" encoding="utf-8"?>
<!-- Generator: Adobe Illustrator 26.3.1, SVG Export Plug-In . SVG Version: 6.00 Build 0)  -->
<svg version="1.1" id="Layer_1" xmlns="http://www.w3.org/2000/svg" xmlns:xlink="http://www.w3.org/1999/xlink" x="0px" y="0px"
	 viewBox="0 0 347 96" style="enable-background:new 0 0 347 96;" xml:space="preserve">
<style type="text/css">
	.st0{fill:#231F20;}
	.st1{fill:#602DB2;}
</style>
<g>
	<g>
		<path class="st0" d="M167.6,81.4c0.5,0.3,1.3,0.6,2.1,0.6c1.2,0,1.9-0.6,1.9-1.5c0-0.8-0.5-1.3-1.7-1.8c-1.5-0.5-2.3-1.3-2.3-2.5
			c0-1.4,1.1-2.4,2.9-2.4c0.9,0,1.6,0.2,2,0.4l-0.3,0.9c-0.3-0.2-0.9-0.4-1.7-0.4c-1.2,0-1.7,0.7-1.7,1.3c0,0.8,0.5,1.2,1.8,1.7
			c1.5,0.6,2.3,1.3,2.3,2.6c0,1.4-1,2.6-3.1,2.6c-0.9,0-1.8-0.3-2.3-0.6L167.6,81.4z"/>
		<path class="st0" d="M184.4,78.9c-0.1-1.2-0.1-2.7-0.1-3.8h0c-0.3,1-0.7,2.2-1.1,3.4l-1.6,4.3h-0.9l-1.4-4.2
			c-0.4-1.3-0.8-2.4-1-3.5h0c0,1.1-0.1,2.6-0.2,3.9l-0.2,3.8h-1.1l0.6-8.9h1.5l1.5,4.3c0.4,1.1,0.7,2.1,0.9,3h0
			c0.2-0.9,0.5-1.9,0.9-3l1.6-4.3h1.5l0.6,8.9h-1.1L184.4,78.9z"/>
		<path class="st0" d="M191.4,80l-0.9,2.8h-1.2l3-8.9h1.4l3,8.9h-1.2l-0.9-2.8H191.4z M194.3,79.1l-0.9-2.6
			c-0.2-0.6-0.3-1.1-0.5-1.6h0c-0.1,0.5-0.3,1.1-0.4,1.6l-0.9,2.6H194.3z"/>
		<path class="st0" d="M200.7,74c0.6-0.1,1.4-0.2,2.2-0.2c1.2,0,2,0.2,2.6,0.7c0.4,0.4,0.7,1,0.7,1.7c0,1.2-0.7,2-1.7,2.3v0
			c0.7,0.2,1.1,0.9,1.3,1.8c0.3,1.2,0.5,2.1,0.7,2.4h-1.2c-0.1-0.3-0.3-1-0.6-2.1c-0.3-1.2-0.7-1.7-1.8-1.7h-1.1v3.9h-1.1V74z
			 M201.8,78.1h1.2c1.2,0,2-0.7,2-1.7c0-1.1-0.8-1.6-2-1.7c-0.6,0-0.9,0.1-1.1,0.1V78.1z"/>
		<path class="st0" d="M212.2,74.9h-2.7v-1h6.6v1h-2.7v7.9h-1.2V74.9z"/>
		<path class="st0" d="M226.3,74.9h-2.7v-1h6.6v1h-2.7v7.9h-1.2V74.9z"/>
		<path class="st0" d="M238.4,78.6H235v3.2h3.9v1h-5v-8.9h4.8v1H235v2.8h3.5V78.6z"/>
		<path class="st0" d="M249.2,82.5c-0.4,0.2-1.3,0.4-2.3,0.4c-2.5,0-4.4-1.6-4.4-4.5c0-2.8,1.9-4.7,4.6-4.7c1.1,0,1.8,0.2,2.1,0.4
			l-0.3,0.9c-0.4-0.2-1.1-0.4-1.8-0.4c-2.1,0-3.5,1.3-3.5,3.7c0,2.2,1.3,3.6,3.4,3.6c0.7,0,1.4-0.1,1.9-0.4L249.2,82.5z"/>
		<path class="st0" d="M254.4,73.9v3.7h4.3v-3.7h1.2v8.9h-1.2v-4.2h-4.3v4.2h-1.1v-8.9H254.4z"/>
		<path class="st0" d="M264.5,82.8v-8.9h1.3l2.8,4.5c0.7,1,1.2,2,1.6,2.9l0,0c-0.1-1.2-0.1-2.3-0.1-3.7v-3.7h1.1v8.9H270l-2.8-4.5
			c-0.6-1-1.2-2-1.7-3l0,0c0.1,1.1,0.1,2.2,0.1,3.7v3.8H264.5z"/>
		<path class="st0" d="M283.4,78.2c0,3.1-1.9,4.7-4.1,4.7c-2.3,0-4-1.8-4-4.5c0-2.8,1.8-4.7,4.1-4.7
			C281.8,73.7,283.4,75.6,283.4,78.2z M276.5,78.4c0,1.9,1,3.6,2.8,3.6c1.8,0,2.8-1.7,2.8-3.7c0-1.8-0.9-3.6-2.8-3.6
			C277.4,74.7,276.5,76.4,276.5,78.4z"/>
		<path class="st0" d="M287.5,73.9h1.1v7.9h3.8v1h-4.9V73.9z"/>
		<path class="st0" d="M303.5,78.2c0,3.1-1.9,4.7-4.1,4.7c-2.3,0-4-1.8-4-4.5c0-2.8,1.8-4.7,4.1-4.7
			C301.9,73.7,303.5,75.6,303.5,78.2z M296.6,78.4c0,1.9,1,3.6,2.8,3.6c1.8,0,2.8-1.7,2.8-3.7c0-1.8-0.9-3.6-2.8-3.6
			C297.5,74.7,296.6,76.4,296.6,78.4z"/>
		<path class="st0" d="M314.3,82.4c-0.5,0.2-1.5,0.5-2.7,0.5c-1.3,0-2.5-0.3-3.3-1.2c-0.8-0.7-1.2-1.9-1.2-3.3
			c0-2.7,1.8-4.6,4.8-4.6c1,0,1.8,0.2,2.2,0.4l-0.3,0.9c-0.5-0.2-1.1-0.4-2-0.4c-2.2,0-3.6,1.3-3.6,3.6c0,2.3,1.4,3.6,3.4,3.6
			c0.8,0,1.3-0.1,1.5-0.2V79h-1.8v-0.9h2.9V82.4z"/>
		<path class="st0" d="M319.9,73.9v8.9h-1.1v-8.9H319.9z"/>
		<path class="st0" d="M329.1,78.6h-3.5v3.2h3.9v1h-5v-8.9h4.8v1h-3.7v2.8h3.5V78.6z"/>
		<path class="st0" d="M333.5,81.4c0.5,0.3,1.3,0.6,2.1,0.6c1.2,0,1.9-0.6,1.9-1.5c0-0.8-0.5-1.3-1.7-1.8c-1.5-0.5-2.3-1.3-2.3-2.5
			c0-1.4,1.1-2.4,2.9-2.4c0.9,0,1.6,0.2,2,0.4l-0.3,0.9c-0.3-0.2-0.9-0.4-1.7-0.4c-1.2,0-1.7,0.7-1.7,1.3c0,0.8,0.5,1.2,1.8,1.7
			c1.5,0.6,2.3,1.3,2.3,2.6c0,1.4-1,2.6-3.1,2.6c-0.9,0-1.8-0.3-2.3-0.6L333.5,81.4z"/>
	</g>
	<rect x="86.5" y="34.9" width="9.7" height="31.4"/>
	<path d="M133,63.7c0,6-1.5,10.5-4.5,13.6c-3,3.1-7.6,4.6-13.7,4.6c-2.8,0-5.6-0.3-8.3-0.9c-2.7-0.6-5.2-1.8-7.5-3.7l5.4-8
		c1.5,1.3,3.1,2.2,4.8,3c1.7,0.7,3.5,1.1,5.5,1.1c3,0,5.2-0.7,6.6-2.2c1.4-1.4,2.1-3.3,2.1-5.5v-3h-0.1c-1.1,1.5-2.5,2.6-4.2,3.2
		c-1.7,0.6-3.2,0.9-4.7,0.9c-2.3,0-4.4-0.4-6.3-1.2c-1.9-0.8-3.5-1.9-4.9-3.4c-1.4-1.4-2.4-3.2-3.1-5.1c-0.7-2-1.1-4.2-1.1-6.5
		c0-2.1,0.3-4.1,1-6.1c0.7-2,1.6-3.7,2.8-5.2c1.2-1.5,2.7-2.7,4.5-3.7c1.8-0.9,3.8-1.4,6-1.4c1.4,0,2.6,0.2,3.8,0.5
		c1.1,0.3,2.2,0.7,3.1,1.2c0.9,0.5,1.7,1,2.3,1.6c0.6,0.6,1.2,1.2,1.6,1.7h0.1v-4.1h8.9V63.7z M108.5,50.4c0,1,0.2,2,0.6,2.9
		c0.4,0.9,0.9,1.7,1.6,2.5c0.7,0.7,1.5,1.3,2.5,1.7c0.9,0.4,2,0.6,3.1,0.6c1.1,0,2.1-0.2,3-0.6c0.9-0.4,1.8-1,2.5-1.7
		c0.7-0.7,1.3-1.5,1.6-2.5c0.4-0.9,0.6-1.9,0.6-2.9c0-1-0.2-2-0.6-2.9c-0.4-0.9-0.9-1.7-1.6-2.5c-0.7-0.7-1.5-1.3-2.5-1.7
		c-0.9-0.4-2-0.6-3-0.6c-1.1,0-2.1,0.2-3.1,0.6c-0.9,0.4-1.7,1-2.5,1.7c-0.7,0.7-1.3,1.5-1.6,2.5C108.7,48.4,108.5,49.4,108.5,50.4z
		"/>
	<rect x="137.6" y="34.9" width="9.7" height="31.4"/>
	<path d="M162.5,54.1h-11.1v-7.8h11.1V54.1z"/>
	<path d="M96.3,30h-9.7v-7.8h9.7V30z"/>
	<path d="M147.2,30h-9.7v-7.8h9.7V30z"/>
	<path class="st1" d="M186.7,62.4h-0.1c-1.1,1.7-2.5,2.9-4.3,3.6c-1.8,0.7-3.7,1.1-5.7,1.1c-1.5,0-2.9-0.2-4.2-0.6
		c-1.4-0.4-2.6-1-3.6-1.8c-1-0.8-1.9-1.8-2.5-3c-0.6-1.2-0.9-2.6-0.9-4.2c0-1.8,0.3-3.3,1-4.6c0.7-1.2,1.6-2.3,2.7-3.1
		c1.1-0.8,2.4-1.5,3.9-1.9c1.5-0.5,3-0.8,4.6-1c1.6-0.2,3.1-0.3,4.7-0.4c1.6,0,3-0.1,4.4-0.1c0-1.7-0.6-3.1-1.8-4.1
		c-1.2-1-2.7-1.5-4.4-1.5c-1.6,0-3.1,0.3-4.4,1c-1.3,0.7-2.5,1.6-3.5,2.7l-5.2-5.3c1.8-1.7,3.9-2.9,6.3-3.8c2.4-0.8,4.9-1.3,7.5-1.3
		c2.8,0,5.2,0.4,7,1.1c1.8,0.7,3.3,1.8,4.4,3.1c1.1,1.4,1.9,3.1,2.3,5.1c0.4,2,0.6,4.3,0.6,7v16h-8.9V62.4z M184.3,52.5
		c-0.7,0-1.6,0-2.7,0.1c-1.1,0.1-2.2,0.2-3.2,0.5c-1,0.3-1.9,0.8-2.6,1.4c-0.7,0.6-1.1,1.4-1.1,2.5c0,1.2,0.5,2,1.5,2.6
		c1,0.6,2,0.8,3.1,0.8c0.9,0,1.9-0.1,2.7-0.4c0.9-0.3,1.7-0.6,2.4-1.1c0.7-0.5,1.2-1.1,1.6-1.8c0.4-0.7,0.6-1.6,0.6-2.6v-2.1H184.3z
		"/>
	<path class="st1" d="M219.8,45c-0.5-0.7-1.1-1.3-2-1.7c-0.9-0.5-1.8-0.7-2.8-0.7c-2.5,0-4.4,0.7-5.7,2.2c-1.4,1.5-2,3.4-2,5.8
		c0,2.4,0.7,4.3,2,5.8c1.4,1.5,3.3,2.2,5.7,2.2c1.1,0,2-0.2,2.8-0.7c0.8-0.5,1.4-1,2-1.7l6.4,6.7c-1.5,1.6-3.3,2.6-5.3,3.3
		c-2,0.6-4,0.9-5.9,0.9c-2.4,0-4.7-0.4-6.8-1.2c-2.1-0.8-4-1.9-5.6-3.3c-1.6-1.4-2.8-3.2-3.7-5.2c-0.9-2-1.4-4.3-1.4-6.8
		c0-2.5,0.5-4.8,1.4-6.8c0.9-2,2.1-3.8,3.7-5.2c1.6-1.4,3.4-2.6,5.6-3.3c2.1-0.8,4.4-1.2,6.8-1.2c1.9,0,3.8,0.3,5.9,0.9
		c2,0.6,3.8,1.7,5.3,3.3L219.8,45z"/>
	<path class="st1" d="M247.7,45c-0.5-0.7-1.1-1.3-2-1.7c-0.9-0.5-1.8-0.7-2.8-0.7c-2.5,0-4.4,0.7-5.7,2.2c-1.4,1.5-2,3.4-2,5.8
		c0,2.4,0.7,4.3,2,5.8c1.4,1.5,3.3,2.2,5.7,2.2c1.1,0,2-0.2,2.8-0.7c0.8-0.5,1.4-1,2-1.7l6.4,6.7c-1.5,1.6-3.3,2.6-5.3,3.3
		c-2,0.6-4,0.9-5.9,0.9c-2.4,0-4.7-0.4-6.8-1.2c-2.1-0.8-4-1.9-5.6-3.3c-1.6-1.4-2.8-3.2-3.7-5.2c-0.9-2-1.4-4.3-1.4-6.8
		c0-2.5,0.5-4.8,1.4-6.8c0.9-2,2.1-3.8,3.7-5.2c1.6-1.4,3.4-2.6,5.6-3.3c2.1-0.8,4.4-1.2,6.8-1.2c1.9,0,3.8,0.3,5.9,0.9
		c2,0.6,3.8,1.7,5.3,3.3L247.7,45z"/>
	<path class="st1" d="M284.1,60.9c-1.6,2-3.5,3.5-5.9,4.6c-2.4,1.1-4.8,1.6-7.4,1.6c-2.4,0-4.7-0.4-6.8-1.2c-2.1-0.8-4-1.9-5.6-3.3
		c-1.6-1.4-2.8-3.2-3.7-5.2c-0.9-2-1.4-4.3-1.4-6.8c0-2.5,0.5-4.8,1.4-6.8c0.9-2,2.1-3.8,3.7-5.2c1.6-1.4,3.4-2.6,5.6-3.3
		c2.1-0.8,4.4-1.2,6.8-1.2c2.2,0,4.3,0.4,6.1,1.2c1.8,0.8,3.4,1.9,4.7,3.3c1.3,1.4,2.3,3.2,2.9,5.2c0.7,2,1,4.3,1,6.8v3h-22.5
		c0.4,1.9,1.2,3.3,2.5,4.4c1.3,1.1,2.9,1.6,4.8,1.6c1.6,0,2.9-0.4,4-1.1c1.1-0.7,2.1-1.6,2.9-2.7L284.1,60.9z M275.9,47
		c0-1.6-0.5-3-1.6-4.2c-1.1-1.2-2.6-1.7-4.3-1.7c-1.1,0-2,0.2-2.8,0.5c-0.8,0.3-1.5,0.8-2.1,1.3c-0.6,0.5-1,1.2-1.4,1.9
		c-0.3,0.7-0.5,1.5-0.5,2.2H275.9z"/>
	<path class="st1" d="M306,44.1c-1.4-1.8-3.3-2.7-5.6-2.7c-0.8,0-1.6,0.2-2.4,0.6c-0.8,0.4-1.2,1.1-1.2,2c0,0.8,0.4,1.3,1.2,1.7
		c0.8,0.4,1.8,0.7,3,1c1.2,0.3,2.5,0.6,3.9,0.9c1.4,0.3,2.7,0.8,3.9,1.5c1.2,0.7,2.2,1.6,3,2.8c0.8,1.2,1.2,2.8,1.2,4.8
		c0,2-0.4,3.7-1.3,5c-0.9,1.3-2,2.4-3.4,3.2c-1.4,0.8-2.9,1.4-4.7,1.7c-1.7,0.3-3.4,0.5-5.1,0.5c-2.2,0-4.4-0.3-6.7-0.9
		c-2.2-0.6-4.1-1.7-5.7-3.3l5.9-6.5c0.9,1.1,1.9,2,3,2.6c1.1,0.6,2.4,0.9,3.8,0.9c1.1,0,2.1-0.2,3-0.5c0.9-0.3,1.4-0.9,1.4-1.8
		c0-0.8-0.4-1.4-1.2-1.8c-0.8-0.4-1.8-0.8-3-1c-1.2-0.3-2.5-0.6-3.9-0.9c-1.4-0.3-2.7-0.8-3.9-1.5c-1.2-0.6-2.2-1.6-3-2.7
		c-0.8-1.2-1.2-2.8-1.2-4.8c0-1.9,0.4-3.4,1.1-4.8c0.8-1.3,1.7-2.4,3-3.3c1.2-0.9,2.6-1.5,4.2-1.9c1.6-0.4,3.2-0.6,4.9-0.6
		c2.1,0,4.2,0.3,6.3,0.9c2.1,0.6,3.9,1.7,5.4,3.2L306,44.1z"/>
	<path class="st1" d="M332.8,44.1c-1.4-1.8-3.3-2.7-5.6-2.7c-0.8,0-1.6,0.2-2.4,0.6c-0.8,0.4-1.2,1.1-1.2,2c0,0.8,0.4,1.3,1.2,1.7
		c0.8,0.4,1.8,0.7,3,1c1.2,0.3,2.5,0.6,3.9,0.9c1.4,0.3,2.7,0.8,3.9,1.5c1.2,0.7,2.2,1.6,3,2.8c0.8,1.2,1.2,2.8,1.2,4.8
		c0,2-0.4,3.7-1.3,5c-0.9,1.3-2,2.4-3.4,3.2c-1.4,0.8-2.9,1.4-4.7,1.7c-1.7,0.3-3.4,0.5-5.1,0.5c-2.2,0-4.4-0.3-6.7-0.9
		c-2.2-0.6-4.1-1.7-5.7-3.3l5.9-6.5c0.9,1.1,1.9,2,3,2.6c1.1,0.6,2.4,0.9,3.8,0.9c1.1,0,2.1-0.2,3-0.5c0.9-0.3,1.4-0.9,1.4-1.8
		c0-0.8-0.4-1.4-1.2-1.8c-0.8-0.4-1.8-0.8-3-1c-1.2-0.3-2.5-0.6-3.9-0.9c-1.4-0.3-2.7-0.8-3.9-1.5c-1.2-0.6-2.2-1.6-3-2.7
		c-0.8-1.2-1.2-2.8-1.2-4.8c0-1.9,0.4-3.4,1.1-4.8c0.8-1.3,1.7-2.4,3-3.3c1.2-0.9,2.6-1.5,4.2-1.9c1.6-0.4,3.2-0.6,4.9-0.6
		c2.1,0,4.2,0.3,6.3,0.9c2.1,0.6,3.9,1.7,5.4,3.2L332.8,44.1z"/>
	<g>
		<path class="st0" d="M44,7.8H6V12c0,8.7,7,15.7,15.7,15.7h18.6c10,0,18.1,8.1,18.1,18.1v0c0,10-8.1,18.1-18.1,18.1H21.7
			C13,63.8,6,70.8,6,79.5v4.2h38c21,0,38-17,38-38v0C82,24.8,65,7.8,44,7.8z"/>
		<path class="st1" d="M38.4,34.4H0v5.3c0,9.5,7.7,17.2,17.2,17.2h21.2c6.2,0,11.2-5,11.2-11.2S44.6,34.4,38.4,34.4z"/>
	</g>
	<g>
		<path d="M341.5,36.8c0-0.4,0.1-0.7,0.2-1.1c0.1-0.3,0.3-0.6,0.6-0.9c0.3-0.2,0.5-0.4,0.9-0.6s0.7-0.2,1.1-0.2
			c0.4,0,0.7,0.1,1.1,0.2c0.3,0.1,0.6,0.3,0.9,0.6c0.3,0.2,0.4,0.5,0.6,0.9c0.1,0.3,0.2,0.7,0.2,1.1c0,0.4-0.1,0.7-0.2,1.1
			c-0.1,0.3-0.3,0.6-0.6,0.9c-0.3,0.2-0.5,0.4-0.9,0.6c-0.3,0.1-0.7,0.2-1.1,0.2c-0.4,0-0.7-0.1-1.1-0.2c-0.3-0.1-0.6-0.3-0.9-0.6
			c-0.3-0.2-0.4-0.5-0.6-0.9C341.5,37.5,341.5,37.2,341.5,36.8z M341.9,36.8c0,0.3,0.1,0.6,0.2,0.9c0.1,0.3,0.3,0.5,0.5,0.7
			c0.2,0.2,0.5,0.4,0.7,0.5c0.3,0.1,0.6,0.2,0.9,0.2c0.3,0,0.6-0.1,0.9-0.2c0.3-0.1,0.5-0.3,0.7-0.5c0.2-0.2,0.4-0.5,0.5-0.7
			c0.1-0.3,0.2-0.6,0.2-0.9c0-0.3-0.1-0.6-0.2-0.9c-0.1-0.3-0.3-0.5-0.5-0.7c-0.2-0.2-0.5-0.4-0.7-0.5c-0.3-0.1-0.6-0.2-0.9-0.2
			c-0.3,0-0.6,0.1-0.9,0.2c-0.3,0.1-0.5,0.3-0.7,0.5c-0.2,0.2-0.4,0.5-0.5,0.7C342,36.2,341.9,36.5,341.9,36.8z M343.2,35.2h1.1
			c0.1,0,0.3,0,0.4,0c0.1,0,0.3,0.1,0.4,0.2c0.1,0.1,0.2,0.2,0.3,0.3c0.1,0.1,0.1,0.3,0.1,0.4c0,0.2-0.1,0.4-0.2,0.6
			c-0.1,0.1-0.3,0.2-0.5,0.3l0.8,1.4h-0.7l-0.7-1.3h-0.4v1.3h-0.6V35.2z M344.2,36.6c0.2,0,0.3,0,0.5-0.1c0.1-0.1,0.2-0.2,0.2-0.4
			c0-0.2-0.1-0.3-0.2-0.3c-0.1-0.1-0.3-0.1-0.4-0.1h-0.5v0.9H344.2z"/>
	</g>
</g>
</svg>
