<?xml version="1.0" encoding="utf-8"?>
<!-- Generator: Adobe Illustrator 26.3.1, SVG Export Plug-In . SVG Version: 6.00 Build 0)  -->
<svg version="1.1" id="Layer_1" xmlns="http://www.w3.org/2000/svg" xmlns:xlink="http://www.w3.org/1999/xlink" x="0px" y="0px"
	 viewBox="0 0 57 57" style="enable-background:new 0 0 57 57;" xml:space="preserve">
<style type="text/css">
	.st0{fill:#FFFFFF;}
	.st1{fill:#602DB2;}
</style>
<path class="st0" d="M15.6,13.7H8v11h7.6V13.7z"/>
<path class="st0" d="M24.6,23.3H17v1.4h7.6V23.3z"/>
<path class="st0" d="M24.5,35H7.2v1.3h17.3V35z"/>
<path class="st0" d="M24.5,38.7H7.2V40h17.3V38.7z"/>
<path class="st0" d="M24.5,42.5H7.2v1.3h17.3V42.5z"/>
<path class="st0" d="M24.5,46.3H7.2v1.3h17.3V46.3z"/>
<path class="st0" d="M24.6,19.3H17v1.4h7.6V19.3z"/>
<path class="st0" d="M24.6,15.4H17v1.4h7.6V15.4z"/>
<g>
	<circle class="st1" cx="28.5" cy="28.5" r="28.5"/>
	<path class="st0" d="M35.4,41.8c-1.3,0-2.6-0.3-3.8-0.7c-1.5-0.5-3-1.1-4.4-1.9c-1-0.6-2-1.3-2.9-2c-1-0.8-1.9-1.6-2.8-2.5
		c-1.3-1.3-2.5-2.6-3.6-4.1c-0.7-0.9-1.3-1.9-1.9-3c-0.6-1.1-1.1-2.2-1.4-3.4c-0.4-1.4-0.6-2.8-0.7-4.2c-0.1-1.2,0.1-2.3,0.7-3.3
		c0.7-1.3,1.7-2.3,3-3c0.4-0.2,0.8-0.2,1.3-0.2c0.7,0,1.5,0.1,2.2,0.3c0.8,0.2,1.4,0.8,1.6,1.6c0.5,1.7,0.9,3.4,1.4,5.2
		c0.1,0.6,0.2,1.1-0.1,1.6c-0.1,0.3-0.4,0.5-0.6,0.8c-0.5,0.5-1,1.1-1.5,1.6c-0.3,0.3-0.3,0.6-0.2,1c0,0.2,0.1,0.3,0.2,0.5
		c1.6,2.3,3.5,4.4,5.6,6.2c0.7,0.6,1.4,1.1,2.2,1.6c0.2,0.1,0.4,0.3,0.7,0.3c0.4,0.1,0.7-0.1,1-0.3c0.6-0.5,1.1-1.1,1.7-1.6
		c0.6-0.6,1.4-0.7,2.2-0.5c1.7,0.5,3.5,1,5.2,1.5c0.5,0.1,0.8,0.5,1.1,0.9c0.2,0.4,0.4,0.7,0.5,1.2c0.1,0.6,0.2,1.1,0.2,1.7
		c0,0.6-0.1,1.1-0.4,1.6c-0.4,0.7-1,1.3-1.7,1.9c-1,0.7-2.1,1.2-3.3,1.4C36.3,41.8,35.9,41.8,35.4,41.8
		C35.4,41.8,35.4,41.8,35.4,41.8z"/>
</g>
</svg>
