<?xml version="1.0" encoding="utf-8"?>
<!-- Generator: Adobe Illustrator 26.3.1, SVG Export Plug-In . SVG Version: 6.00 Build 0)  -->
<svg version="1.1" id="Layer_1" xmlns="http://www.w3.org/2000/svg" xmlns:xlink="http://www.w3.org/1999/xlink" x="0px" y="0px"
	 viewBox="0 0 57 57" style="enable-background:new 0 0 57 57;" xml:space="preserve">
<style type="text/css">
	.st0{fill:#602DB2;}
	.st1{fill:#FFFFFF;}
</style>
<g>
	<circle class="st0" cx="28.5" cy="28.5" r="28.5"/>
	<g>
		<path class="st1" d="M28.2,18.4c4.4,0,8.8,0,13.2,0c1,0,1.8,0.6,2,1.6c0,0.1,0,0.2,0,0.4c0,5,0,10.1,0,15.1c0,1.2-0.8,2-2,2
			c-8.8,0-17.6,0-26.4,0c-1.2,0-2-0.8-2-2c0-5,0-10.1,0-15.1c0-1.2,0.8-2,2-2C19.3,18.4,23.7,18.4,28.2,18.4z M28.1,35.8
			c4.4,0,8.8,0,13.2,0c0.3,0,0.4-0.1,0.4-0.4c0-5,0-10,0-15c0-0.3-0.1-0.4-0.4-0.4c-8.8,0-17.6,0-26.3,0c-0.3,0-0.4,0.1-0.4,0.4
			c0,5,0,10,0,15c0,0.4,0.1,0.4,0.4,0.4C19.4,35.8,23.8,35.8,28.1,35.8z"/>
		<path class="st1" d="M24.3,33.1c-2.6,0-5.2,0-7.9,0c0-0.2,0-0.3,0-0.4c0-0.7,0-1.5,0-2.2c0.1-1.2,0.8-2.2,1.8-2.8
			c0.1-0.1,0.2-0.1,0.3,0c1.1,0.9,2.5,0.9,3.6,0c0.1-0.1,0.2-0.1,0.3,0c1.1,0.7,1.7,1.7,1.8,3C24.3,31.4,24.3,32.2,24.3,33.1z"/>
		<path class="st1" d="M17.9,25.4c0-1.3,1.1-2.4,2.4-2.4c1.3,0,2.4,1.1,2.4,2.4c0,1.3-1.1,2.4-2.5,2.4C19,27.8,17.9,26.7,17.9,25.4z
			"/>
		<path class="st1" d="M33.2,28.7c-1.5,0-2.9,0-4.4,0c-0.5,0-0.8-0.3-0.9-0.7c0-0.5,0.3-0.9,0.8-0.9c0,0,0.1,0,0.1,0
			c2.9,0,5.8,0,8.7,0c0.6,0,0.9,0.4,0.9,0.9c0,0.5-0.4,0.8-0.9,0.8C36.1,28.7,34.6,28.7,33.2,28.7z"/>
		<path class="st1" d="M33.2,25.4c-1.5,0-3,0-4.5,0c-0.4,0-0.7-0.2-0.8-0.6c-0.1-0.3,0.1-0.7,0.4-0.9c0.1-0.1,0.3-0.1,0.4-0.1
			c3,0,5.9,0,8.9,0c0.5,0,0.8,0.4,0.8,0.8c0,0.5-0.4,0.8-0.8,0.8C36.1,25.4,34.7,25.4,33.2,25.4z"/>
		<path class="st1" d="M33.2,32c-1.5,0-2.9,0-4.4,0c-0.5,0-0.9-0.4-0.9-0.8c0-0.4,0.3-0.7,0.7-0.8c0.1,0,0.1,0,0.2,0
			c2.9,0,5.9,0,8.8,0c0.4,0,0.8,0.2,0.9,0.6c0.1,0.5-0.2,1-0.8,1c-0.6,0-1.2,0-1.8,0C35,32,34.1,32,33.2,32z"/>
	</g>
</g>
</svg>
