<?xml version="1.0" encoding="utf-8"?>
<!-- Generator: Adobe Illustrator 26.3.1, SVG Export Plug-In . SVG Version: 6.00 Build 0)  -->
<svg version="1.1" id="Layer_1" xmlns="http://www.w3.org/2000/svg" xmlns:xlink="http://www.w3.org/1999/xlink" x="0px" y="0px"
	 viewBox="0 0 57 57" style="enable-background:new 0 0 57 57;" xml:space="preserve">
<style type="text/css">
	.st0{fill:#602DB2;}
	.st1{fill:#FFFFFF;}
</style>
<g id="Layer_2">
	<circle class="st0" cx="28.5" cy="29" r="28.5"/>
	<g>
		<g>
			<g>
				<path class="st1" d="M13.3,43.7c0.4-1.4,0.7-2.8,1.1-4.1c0.4-1.3,0.7-2.6,1.1-3.9c0-0.2,0-0.4-0.1-0.6
					c-4.4-8.2-1.2-18.3,7.1-22.3c9.3-4.5,20.5,0.9,22.7,11c1.9,8.5-3.3,17-11.7,19.2c-4,1-7.8,0.6-11.4-1.3
					c-0.2-0.1-0.5-0.1-0.7-0.1c-2.6,0.7-5.2,1.4-7.8,2C13.6,43.7,13.5,43.7,13.3,43.7z M17.2,39.9c1.6-0.4,3.2-0.8,4.7-1.2
					c0.3-0.1,0.5,0,0.7,0.1c2.7,1.6,5.6,2.3,8.7,1.8c7.8-1.1,13-8.5,11.3-16.2c-1.1-5-4.2-8.4-9.1-9.9c-4.8-1.5-9.3-0.5-13,3
					c-4.8,4.4-5.7,11.4-2.3,17c0.2,0.4,0.3,0.7,0.2,1.1C18,37,17.6,38.4,17.2,39.9z"/>
			</g>
			<path class="st1" d="M24.2,19.9c1,0,1.1,0.1,1.4,0.9c0.4,0.9,0.8,1.8,1.2,2.8c0.1,0.3,0.2,0.6,0,0.9c-0.3,0.4-0.6,0.8-0.9,1.2
				c-0.3,0.3-0.3,0.6-0.1,0.9c1.3,2.2,3.1,3.8,5.5,4.7c0.3,0.1,0.6,0.1,0.9-0.2c0.4-0.5,0.8-1,1.2-1.4c0.2-0.3,0.5-0.4,0.9-0.3
				c1.1,0.5,2.3,1.1,3.4,1.6c0.2,0.1,0.3,0.4,0.3,0.7c0,1.7-1.3,3.1-3,3.3c-0.9,0.2-1.8,0.1-2.7-0.2c-3.6-1.1-6.3-3.3-8.5-6.3
				c-0.8-1.1-1.6-2.2-1.9-3.6c-0.4-1.8,0-3.3,1.3-4.6C23.3,19.9,23.8,19.8,24.2,19.9z"/>
		</g>
	</g>
</g>
</svg>
